<?xml version="1.0" encoding="UTF-8" standalone="no"?>
<svg width="1025px" height="483px" viewBox="0 0 1025 483" version="1.1" xmlns="http://www.w3.org/2000/svg" xmlns:xlink="http://www.w3.org/1999/xlink" xmlns:sketch="http://www.bohemiancoding.com/sketch/ns">
    <!-- Generator: Sketch 3.0 (7574) - http://www.bohemiancoding.com/sketch -->
    <title>ANRC FLAT</title>
    <description>Created with Sketch.</description>
    <defs>
        <path id="path-1" d="M0.737134752,60.9484453 L0.737134752,0.0309207547 L0.768,0.0309207547 L0.737134752,60.9484453"></path>
        <path id="path-3" d="M0.85151773,0.47290566 L0.815205674,0.471086792 L0.85151773,0.47290566"></path>
        <path id="path-5" d="M-0.245106383,0.0327396226 L-0.410326241,0.0309207547 L-0.245106383,0.0309207547 L-0.245106383,0.0327396226"></path>
        <path id="path-7" d="M0.290496454,-0.803939623 L0.290496454,-0.827584906 L11.6561702,-0.827584906 L0.290496454,-0.803939623"></path>
        <path id="path-9" d="M0.65906383,0.471086792 L0.662695035,0.471086792 L0.662695035,0.940354717 L0.65906383,0.940354717 L0.65906383,0.471086792 Z"></path>
        <path id="path-11" d="M127.377248,118.712053 L-0.622751773,118.712053 L-0.622751773,58.2346943 L75.1786667,58.2346943 L75.1786667,0.0309207547 L187.746043,0.0309207547 L187.746043,58.2346943 L127.377248,58.2346943 L127.377248,118.712053"></path>
        <path d="M768.744397,482.485638 L448.744397,482.485638 L448.744397,422.008279 L512.744397,422.008279 L512.744397,361.530921 L431.036823,361.530921 L431.036823,482.485638 L303.971858,482.485638 L303.971858,422.008279 L265.816965,422.008279 L265.816965,482.485638 L75.1786667,482.485638 L75.1786667,422.008279 L35.2644539,422.008279 L35.2644539,361.530921 L0.738950355,361.530921 L0.738950355,303.327147 L128.73895,303.327147 L128.73895,242.849789 L102.893844,242.849789 L102.893844,182.37243 L128.73895,182.37243 L128.73895,121.895072 L204.752794,121.895072 L204.752794,182.37243 L185.67444,182.37243 L185.67444,242.849789 L210.441078,242.849789 L210.441078,303.327147 L135.547461,303.327147 L135.547461,363.804506 L214.980085,363.804506 L214.980085,422.008279 L232.682213,422.008279 L232.682213,363.804506 L384.73895,363.804506 L384.73895,303.327147 L466.446525,303.327147 L466.446525,242.849789 L384.73895,242.849789 L384.73895,182.812596 L400.910525,182.812596 L400.910525,122.335238 L361.96766,122.335238 L361.875064,61.4177132 L336.625475,61.4177132 L336.70173,122.335238 L320.73895,122.335238 L320.73895,182.37243 L292.143206,182.37243 L292.143206,242.849789 L223.831149,242.849789 L223.831149,182.812596 L251.290326,182.812596 L251.321191,121.895072 L273.079376,121.895072 L273.079376,60.9920981 L338.441078,60.9629962 L338.441078,0.485637736 L384.73895,0.485637736 L384.73895,61.4177132 L400.910525,61.4177132 L400.910525,0.940354717 L400.87966,0.940354717 L400.87966,0.485637736 L463.033191,0.485637736 L463.033191,61.0084679 L460.110071,61.0139245 L448.744397,61.0139245 L448.744397,121.895072 L466.446525,121.895072 L466.446525,60.9629962 L480.735319,60.9629962 L480.735319,0.485637736 L768.744397,0.485637736 L768.744397,482.485638 L768.744397,482.485638 Z M466.446525,182.812596 L504.59234,182.812596 L504.59234,122.335238 L466.446525,122.335238 L466.446525,182.812596 Z" id="path-13"></path>
    </defs>
    <g id="Page-1" stroke="none" stroke-width="1" fill="none" fill-rule="evenodd" sketch:type="MSPage">
        <g id="ANRC-FLAT" sketch:type="MSLayerGroup">
            <path d="M0.738950355,303.327147 L128.73895,303.327147 L128.73895,361.530921 L0.738950355,361.530921 L0.738950355,303.327147 Z" id="Fill-5" sketch:type="MSShapeGroup"></path>
            <path d="M140.540369,422.008279 L64.7389504,422.008279 L64.7389504,482.485638 L192.73895,482.485638 L192.73895,422.008279 L253.107745,422.008279 L253.107745,363.804506 L140.540369,363.804506 L140.540369,422.008279" id="Fill-7" fill="#DC3C2F" sketch:type="MSShapeGroup"></path>
            <path d="M140.540369,242.849789 L236.767319,242.849789 L236.767319,303.327147 L140.540369,303.327147 L140.540369,242.849789 Z" id="Fill-12" sketch:type="MSShapeGroup"></path>
            <path d="M256.73895,182.37243 L320.73895,182.37243 L320.73895,242.849789 L256.73895,242.849789 L256.73895,182.37243 Z" id="Fill-14" fill="#DC3C2F" sketch:type="MSShapeGroup"></path>
            <path d="M256.73895,182.37243 L320.73895,182.37243 L320.73895,242.849789 L256.73895,242.849789 L256.73895,182.37243 Z" id="Fill-15" sketch:type="MSShapeGroup"></path>
            <path d="M548.143206,242.849789 L640.73895,242.849789 L640.73895,303.327147 L548.143206,303.327147 L548.143206,242.849789 Z" id="Fill-17" fill="#DC3C2F" sketch:type="MSShapeGroup"></path>
            <path d="M548.143206,242.849789 L640.73895,242.849789 L640.73895,303.327147 L548.143206,303.327147 L548.143206,242.849789 Z" id="Fill-18" sketch:type="MSShapeGroup"></path>
            <path d="M594.441078,60.9629962 L529.079376,60.9920981 L594.441078,60.9629962" id="Fill-20" fill="#DC3C2F" sketch:type="MSShapeGroup"></path>
            <path d="M719.033191,61.0084679 L716.110071,61.0139245 L719.033191,61.0139245 L719.033191,61.0084679" id="Fill-21" fill="#DC3C2F" sketch:type="MSShapeGroup"></path>
            <g id="Group-24" transform="translate(506.553191, 121.864151)">
                <mask id="mask-2" sketch:name="Clip 23" fill="white">
                    <use xlink:href="#path-1"></use>
                </mask>
                <g id="Clip-23"></g>
                <path d="M0.737134752,60.9484453 L0.737134752,0.0309207547 L0.768,0.0309207547 L0.737134752,60.9484453" id="Fill-22" sketch:type="MSShapeGroup" mask="url(#mask-2)"></path>
            </g>
            <g id="Group-27" transform="translate(591.886525, 121.864151)">
                <mask id="mask-4" sketch:name="Clip 26" fill="white">
                    <use xlink:href="#path-3"></use>
                </mask>
                <g id="Clip-26"></g>
                <path d="M0.85151773,0.47290566 L0.815205674,0.471086792 L0.85151773,0.47290566" id="Fill-25" sketch:type="MSShapeGroup" mask="url(#mask-4)"></path>
            </g>
            <g id="Group-30" transform="translate(461.163121, 121.864151)">
                <mask id="mask-6" sketch:name="Clip 29" fill="white">
                    <use xlink:href="#path-5"></use>
                </mask>
                <g id="Clip-29"></g>
                <path d="M-0.245106383,0.0327396226 L-0.410326241,0.0309207547 L-0.245106383,0.0309207547 L-0.245106383,0.0327396226" id="Fill-28" sketch:type="MSShapeGroup" mask="url(#mask-6)"></path>
            </g>
            <g id="Group-33" transform="translate(704.453901, 61.841509)">
                <mask id="mask-8" sketch:name="Clip 32" fill="white">
                    <use xlink:href="#path-7"></use>
                </mask>
                <g id="Clip-32"></g>
                <path d="M0.290496454,-0.803939623 L0.290496454,-0.827584906 L11.6561702,-0.827584906 L0.290496454,-0.803939623" id="Fill-31" sketch:type="MSShapeGroup" mask="url(#mask-8)"></path>
            </g>
            <g id="Group-36" transform="translate(617.304965, 121.864151)">
                <mask id="mask-10" sketch:name="Clip 35" fill="white">
                    <use xlink:href="#path-9"></use>
                </mask>
                <g id="Clip-35"></g>
                <path d="M0.65906383,0.471086792 L0.662695035,0.471086792 L0.662695035,0.940354717 L0.65906383,0.940354717 L0.65906383,0.471086792 Z" id="Fill-34" sketch:type="MSShapeGroup" mask="url(#mask-10)"></path>
            </g>
            <path d="M722.446525,122.335238 L760.59234,122.335238 L760.59234,182.812596 L722.446525,182.812596 L722.446525,122.335238 Z M736.735319,0.485637736 L736.735319,60.9629962 L722.446525,60.9629962 L722.446525,121.895072 L704.744397,121.895072 L704.744397,61.0139245 L716.110071,61.0139245 L719.033191,61.0084679 L719.033191,0.485637736 L656.87966,0.485637736 L656.87966,0.940354717 L656.910525,0.940354717 L656.910525,61.4177132 L640.73895,61.4177132 L640.73895,0.485637736 L594.441078,0.485637736 L594.441078,60.9629962 L529.079376,60.9920981 L529.079376,121.895072 L507.321191,121.895072 L507.290326,182.812596 L479.831149,182.812596 L479.831149,242.849789 L548.143206,242.849789 L548.143206,182.37243 L576.73895,182.37243 L576.73895,122.335238 L592.70173,122.335238 L592.625475,61.4177132 L617.875064,61.4177132 L617.96766,122.335238 L656.910525,122.335238 L656.910525,182.812596 L640.73895,182.812596 L640.73895,242.849789 L722.446525,242.849789 L722.446525,303.327147 L640.73895,303.327147 L640.73895,363.804506 L488.682213,363.804506 L488.682213,422.008279 L470.980085,422.008279 L470.980085,363.804506 L391.547461,363.804506 L391.547461,303.327147 L466.441078,303.327147 L466.441078,242.849789 L441.67444,242.849789 L441.67444,182.37243 L460.752794,182.37243 L460.752794,121.895072 L384.73895,121.895072 L384.73895,182.37243 L358.893844,182.37243 L358.893844,242.849789 L384.73895,242.849789 L384.73895,303.327147 L256.73895,303.327147 L256.73895,361.530921 L291.264454,361.530921 L291.264454,422.008279 L331.178667,422.008279 L331.178667,482.485638 L521.816965,482.485638 L521.816965,422.008279 L559.971858,422.008279 L559.971858,482.485638 L687.036823,482.485638 L687.036823,361.530921 L768.744397,361.530921 L768.744397,422.008279 L704.744397,422.008279 L704.744397,482.485638 L1024.7444,482.485638 L1024.7444,0.485637736 L736.735319,0.485637736 L736.735319,0.485637736 Z" id="Fill-37" fill="#DC3C2F" sketch:type="MSShapeGroup"></path>
            <g id="Group">
                <path d="M0.738950355,303.327147 L128.73895,303.327147 L128.73895,361.530921 L0.738950355,361.530921 L0.738950355,303.327147 Z" id="Fill-4" fill="#DC3C2F" sketch:type="MSShapeGroup"></path>
                <g id="Group-10" transform="translate(65.361702, 363.773585)">
                    <mask id="mask-12" sketch:name="Clip 9" fill="white">
                        <use xlink:href="#path-11"></use>
                    </mask>
                    <g id="Clip-9"></g>
                    <path d="M127.377248,118.712053 L-0.622751773,118.712053 L-0.622751773,58.2346943 L75.1786667,58.2346943 L75.1786667,0.0309207547 L187.746043,0.0309207547 L187.746043,58.2346943 L127.377248,58.2346943 L127.377248,118.712053" id="Fill-8" sketch:type="MSShapeGroup" mask="url(#mask-12)"></path>
                </g>
                <path d="M140.540369,242.849789 L236.767319,242.849789 L236.767319,303.327147 L140.540369,303.327147 L140.540369,242.849789 Z" id="Fill-11" fill="#DC3C2F" sketch:type="MSShapeGroup"></path>
                <g id="Group-40" transform="translate(256.000000, 0.000000)">
                    <mask id="mask-14" sketch:name="Clip 39" fill="white">
                        <use xlink:href="#path-13"></use>
                    </mask>
                    <g id="Clip-39"></g>
                    <path d="M768.744397,482.485638 L448.744397,482.485638 L448.744397,422.008279 L512.744397,422.008279 L512.744397,361.530921 L431.036823,361.530921 L431.036823,482.485638 L303.971858,482.485638 L303.971858,422.008279 L265.816965,422.008279 L265.816965,482.485638 L75.1786667,482.485638 L75.1786667,422.008279 L35.2644539,422.008279 L35.2644539,361.530921 L0.738950355,361.530921 L0.738950355,303.327147 L128.73895,303.327147 L128.73895,242.849789 L102.893844,242.849789 L102.893844,182.37243 L128.73895,182.37243 L128.73895,121.895072 L204.752794,121.895072 L204.752794,182.37243 L185.67444,182.37243 L185.67444,242.849789 L210.441078,242.849789 L210.441078,303.327147 L135.547461,303.327147 L135.547461,363.804506 L214.980085,363.804506 L214.980085,422.008279 L232.682213,422.008279 L232.682213,363.804506 L384.73895,363.804506 L384.73895,303.327147 L466.446525,303.327147 L466.446525,242.849789 L384.73895,242.849789 L384.73895,182.812596 L400.910525,182.812596 L400.910525,122.335238 L361.96766,122.335238 L361.875064,61.4177132 L336.625475,61.4177132 L336.70173,122.335238 L320.73895,122.335238 L320.73895,182.37243 L292.143206,182.37243 L292.143206,242.849789 L223.831149,242.849789 L223.831149,182.812596 L251.290326,182.812596 L251.321191,121.895072 L273.079376,121.895072 L273.079376,60.9920981 L338.441078,60.9629962 L338.441078,0.485637736 L384.73895,0.485637736 L384.73895,61.4177132 L400.910525,61.4177132 L400.910525,0.940354717 L400.87966,0.940354717 L400.87966,0.485637736 L463.033191,0.485637736 L463.033191,61.0084679 L460.110071,61.0139245 L448.744397,61.0139245 L448.744397,121.895072 L466.446525,121.895072 L466.446525,60.9629962 L480.735319,60.9629962 L480.735319,0.485637736 L768.744397,0.485637736 L768.744397,482.485638 L768.744397,482.485638 Z M466.446525,182.812596 L504.59234,182.812596 L504.59234,122.335238 L466.446525,122.335238 L466.446525,182.812596 Z" id="Fill-38" sketch:type="MSShapeGroup" mask="url(#mask-14)"></path>
                </g>
                <path d="M171.405617,121.895072 L256.73895,121.895072 L256.73895,182.37243 L171.405617,182.37243 L171.405617,121.895072 Z" id="Fill-41" fill="#DC3C2F" sketch:type="MSShapeGroup"></path>
            </g>
            <path d="M171.405617,121.895072 L256.73895,121.895072 L256.73895,182.37243 L171.405617,182.37243 L171.405617,121.895072 Z" id="Fill-42" sketch:type="MSShapeGroup"></path>
        </g>
    </g>
</svg>